<?xml version="1.0" encoding="UTF-8" standalone="no"?>
<!-- Created with Inkscape (http://www.inkscape.org/) -->

<svg
   width="166.46478mm"
   height="155.61946mm"
   viewBox="0 0 166.46478 155.61946"
   version="1.1"
   id="svg1"
   sodipodi:docname="uf-foretag-logotype.svg"
   inkscape:version="1.3.2 (091e20e, 2023-11-25, custom)"
   xmlns:inkscape="http://www.inkscape.org/namespaces/inkscape"
   xmlns:sodipodi="http://sodipodi.sourceforge.net/DTD/sodipodi-0.dtd"
   xmlns:xlink="http://www.w3.org/1999/xlink"
   xmlns="http://www.w3.org/2000/svg"
   xmlns:svg="http://www.w3.org/2000/svg">
  <sodipodi:namedview
     id="namedview1"
     pagecolor="#ffffff"
     bordercolor="#000000"
     borderopacity="0.25"
     inkscape:showpageshadow="2"
     inkscape:pageopacity="0.0"
     inkscape:pagecheckerboard="0"
     inkscape:deskcolor="#d1d1d1"
     inkscape:document-units="mm"
     inkscape:zoom="0.70710677"
     inkscape:cx="405.8793"
     inkscape:cy="333.0473"
     inkscape:window-width="1920"
     inkscape:window-height="1009"
     inkscape:window-x="-8"
     inkscape:window-y="-8"
     inkscape:window-maximized="1"
     inkscape:current-layer="layer1" />
  <defs
     id="defs1">
    <rect
       x="139"
       y="104"
       width="362.00001"
       height="208"
       id="rect3" />
    <rect
       x="148.49243"
       y="106.06602"
       width="343.6539"
       height="203.64675"
       id="rect2" />
    <linearGradient
       id="linearGradient2"
       inkscape:collect="always">
      <stop
         style="stop-color:#ffffff;stop-opacity:1;"
         offset="0.49752477"
         id="stop2" />
      <stop
         style="stop-color:#ffffff;stop-opacity:0;"
         offset="1"
         id="stop3" />
    </linearGradient>
    <linearGradient
       id="linearGradient24"
       inkscape:collect="always">
      <stop
         style="stop-color:#ffffff;stop-opacity:1;"
         offset="0"
         id="stop25" />
      <stop
         style="stop-color:#ffffff;stop-opacity:0;"
         offset="1"
         id="stop26" />
    </linearGradient>
    <linearGradient
       id="linearGradient17"
       inkscape:collect="always">
      <stop
         style="stop-color:#ff7c7c;stop-opacity:1;"
         offset="0"
         id="stop16" />
      <stop
         style="stop-color:#00caff;stop-opacity:0;"
         offset="1"
         id="stop17" />
    </linearGradient>
    <rect
       x="229.43321"
       y="328.04068"
       width="501.29636"
       height="89.471535"
       id="rect9" />
    <linearGradient
       id="linearGradient9"
       inkscape:collect="always">
      <stop
         style="stop-color:#000000;stop-opacity:1;"
         offset="0"
         id="stop8" />
      <stop
         style="stop-color:#00caff;stop-opacity:0;"
         offset="1"
         id="stop9" />
    </linearGradient>
    <linearGradient
       id="linearGradient6"
       inkscape:collect="always">
      <stop
         style="stop-color:#000000;stop-opacity:1;"
         offset="0"
         id="stop6" />
      <stop
         style="stop-color:#b4b4b4;stop-opacity:0;"
         offset="1"
         id="stop7" />
    </linearGradient>
    <rect
       x="237.48264"
       y="342.41684"
       width="334.13254"
       height="350.70111"
       id="rect4" />
    <linearGradient
       inkscape:collect="always"
       xlink:href="#linearGradient6"
       id="linearGradient7"
       x1="12.05535"
       y1="50.413284"
       x2="204.94096"
       y2="219.55351"
       gradientUnits="userSpaceOnUse"
       gradientTransform="translate(0.26458333,1.3229167)" />
    <linearGradient
       inkscape:collect="always"
       xlink:href="#linearGradient17"
       id="linearGradient8"
       x1="9.6335125"
       y1="49.176453"
       x2="212.78453"
       y2="205.8383"
       gradientUnits="userSpaceOnUse" />
    <linearGradient
       inkscape:collect="always"
       xlink:href="#linearGradient9"
       id="linearGradient14"
       x1="84.022141"
       y1="135.89668"
       x2="114.70849"
       y2="175.5332"
       gradientUnits="userSpaceOnUse"
       gradientTransform="translate(-4.3396669,0.57456197)" />
    <linearGradient
       inkscape:collect="always"
       xlink:href="#linearGradient17"
       id="linearGradient29"
       gradientUnits="userSpaceOnUse"
       x1="9.6335125"
       y1="49.176453"
       x2="212.78453"
       y2="205.8383" />
    <radialGradient
       inkscape:collect="always"
       xlink:href="#linearGradient24"
       id="radialGradient26"
       cx="359.37125"
       cy="358.84543"
       fx="359.37125"
       fy="358.84543"
       r="128.39426"
       gradientTransform="matrix(1,0,0,0.16824739,0,298.47063)"
       gradientUnits="userSpaceOnUse" />
    <linearGradient
       inkscape:collect="always"
       xlink:href="#linearGradient2"
       id="linearGradient3"
       x1="72.760414"
       y1="150.54791"
       x2="149.75417"
       y2="169.06876"
       gradientUnits="userSpaceOnUse"
       gradientTransform="translate(-4.6042502,-0.74835469)" />
  </defs>
  <g
     inkscape:label="Lager 1"
     inkscape:groupmode="layer"
     id="layer1"
     transform="translate(-22.903366,-50.82505)">
    <g
       id="g29"
       transform="matrix(1.0000347,0,0,0.96314995,-0.00368679,1.9985641)">
      <path
         id="rect1"
         style="opacity:1;fill:url(#linearGradient7);fill-opacity:1;stroke:#f9faf9;stroke-width:0.240219"
         d="m 27.348346,202.71751 c 14.734478,-35.51292 90.667564,-2.95737 148.406204,9.3613 -39.79963,-48.36714 6.15346,-98.93524 9.3613,-148.406222 C 145.64492,92.621586 86.226586,57.586353 36.709644,54.311289 79.363702,83.01599 30.583533,153.19672 27.348346,202.71751 Z"
         sodipodi:nodetypes="ccccc" />
    </g>
    <g
       id="g4"
       transform="matrix(0.99811337,0.05883253,-0.06295988,0.93268189,5.7916285,5.2511023)"
       style="opacity:1;fill:url(#linearGradient8);fill-opacity:1">
      <path
         id="path1"
         style="fill:url(#linearGradient29);fill-opacity:1;stroke:#f9faf9;stroke-width:0.240219;stroke-opacity:0"
         d="M 49.061033,212.01931 C 54.640044,173.97792 136.23699,186.92536 195.23368,184.71372 144.79146,147.57918 176.94576,87.28889 167.92809,38.54106 136.75831,76.28287 70.56431,56.88289 21.755445,65.84665 70.14481,83.21897 40.057663,163.2165 49.061033,212.01931 Z"
         sodipodi:nodetypes="ccccc" />
    </g>
    <ellipse
       style="fill:url(#linearGradient3);fill-opacity:1;stroke:#000000;stroke-width:0.241549;stroke-opacity:0"
       id="path11"
       cx="102.65154"
       cy="155.6026"
       rx="41.379227"
       ry="18.379225" />
    <ellipse
       style="fill:url(#linearGradient14);fill-opacity:1;stroke:#000000;stroke-width:0.330323;stroke-opacity:0"
       id="path12"
       cx="102.21926"
       cy="155.60262"
       rx="18.687429"
       ry="18.334839" />
    <circle
       style="fill:#000000;fill-opacity:1;stroke:#000000;stroke-width:0.0658484;stroke-opacity:0"
       id="path13"
       cx="106.24043"
       cy="157.18419"
       r="7.4670758" />
    <path
       d="m 54.79277,130.20142 1.082689,-5.3096 6.743986,-35.913553 0.717446,-4.019073 q 0.313066,-1.769867 0.873978,-5.088377 2.295825,0.07373 3.352428,0.07373 1.839266,0 3.404603,-0.07373 l 1.904488,15.375731 3.874204,29.571522 0.756581,5.38335 q -2.256694,-0.0737 -2.739335,-0.0737 -1.095738,0 -3.221984,0.0737 -0.573954,-6.08392 -1.656646,-14.30643 h -6.574407 q -1.134866,6.48951 -2.348002,14.30643 -2.426268,-0.0737 -2.974135,-0.0737 -0.991381,0 -3.195894,0.0737 z m 10.09641,-25.03625 h 4.056827 Q 67.43285,92.149271 67.289361,90.821871 q -0.860934,5.420222 -1.460977,8.886222 z m 14.035838,25.03625 q 0.756577,-29.6084 0.756577,-45.574081 l -0.01306,-4.756522 q 2.282783,0.07373 3.052405,0.07373 0.352199,0 2.804557,-0.07373 -0.2348,8.296255 -0.378289,15.707576 -0.182623,10.324227 -0.26089,19.321047 -0.07827,8.95996 -0.07827,15.30198 l -2.674113,-0.0737 q -0.782667,0 -3.208935,0.0737 z m 7.735363,-14.49079 q 0.156534,-5.34647 0.195665,-10.21361 1.852315,0.14749 3.495916,0.14749 1.669691,0 3.50896,-0.14749 -0.156533,4.75651 -0.195668,10.21361 -1.852311,-0.11061 -3.508957,-0.11061 -1.656646,0 -3.495916,0.11061 z m 18.953599,-14.85951 q 1.7871,0.0737 3.40461,0.0737 2.76542,0 4.33076,-0.0737 -0.16958,5.0515 -0.3522,14.30643 -0.16958,9.25493 -0.20871,13.97457 -1.50012,0.77433 -2.4915,1.10617 -0.97833,0.36872 -2.36104,0.62683 -1.38272,0.29498 -2.46541,0.29498 -1.77404,0 -3.48287,-0.81119 -1.70882,-0.81119 -3.065445,-2.61793 -1.343582,-1.80674 -2.243651,-4.90401 -0.900065,-3.09727 -1.395756,-7.33757 -0.482645,-4.24031 -0.482645,-8.7756 0,-7.485053 1.317489,-13.900829 1.317493,-6.415766 3.782893,-10.139858 2.478455,-3.760967 6.391795,-3.760967 2.85673,0 6.32656,1.954226 0,5.383348 0.16958,11.983473 -0.93921,-0.884933 -1.52621,-1.3274 -0.57395,-0.47934 -1.35662,-0.848059 -0.76962,-0.405593 -1.47402,-0.589952 -0.69136,-0.18436 -1.23923,-0.18436 -1.43489,0 -2.71324,1.179905 -1.27836,1.14304 -2.20452,3.576607 -0.91311,2.396702 -1.36967,5.752074 -0.45655,3.35537 -0.45655,7.07946 0,3.79784 0.52178,6.7845 0.52177,2.94977 1.65664,4.4984 1.13487,1.54864 2.53063,1.54864 1.16095,0 2.54367,-0.95868 l 0.14349,-8.00127 q -0.84789,-0.11062 -1.00443,-0.11062 l -1.38271,0.0369 0.0913,-4.53528 q 0.0131,-0.73745 0.0391,-2.10172 0.0261,-1.40114 0.0261,-3.79784 z m 11.43999,2.43357 q 0.24785,-3.650347 0.31307,-5.014624 0.0652,-1.401147 0.20871,-4.350918 3.75681,-2.322955 6.45701,-2.322955 1.53924,0 2.8176,0.995545 1.27836,0.958681 1.99581,3.13414 0.71744,2.17547 0.71744,6.231412 0,2.06484 -0.19567,9.2918 -0.19567,7.22696 -0.30002,18.95233 -1.27836,-0.0737 -2.54367,-0.0737 -1.22618,0 -2.60889,0.0737 0.18262,-4.05595 0.40438,-16.74 -0.49569,0.6637 -0.78267,0.95868 -0.27394,0.29498 -0.97834,0.88494 -0.7044,0.58995 -1.10877,0.99554 -0.39134,0.4056 -0.69136,1.03243 -0.28698,0.62683 -0.41742,1.29053 -0.1174,0.6637 -0.1174,1.47488 0,1.25366 0.3522,2.1386 0.3522,0.88493 1.12182,0.88493 0.27393,0 0.587,-0.11062 0.31307,-0.14749 0.86094,-0.6637 -0.3783,2.83917 -0.90007,8.29625 -1.12183,0.51622 -2.12625,0.51622 -1.61751,0 -2.7002,-1.25365 -1.06965,-1.29054 -1.65665,-4.1297 -0.57395,-2.83916 -0.57395,-5.67833 0,-1.73299 0.20871,-3.39224 0.22175,-1.65925 0.67831,-3.24476 0.45655,-1.5855 1.06964,-2.69167 0.6131,-1.14304 1.66969,-2.13859 1.06965,-0.99555 2.70021,-1.88048 0.67831,-0.36872 1.23922,-0.77432 0.57396,-0.44246 0.80876,-0.73744 0.24784,-0.33186 0.39133,-0.73745 0.15653,-0.44247 0.22176,-0.88494 0.0652,-0.47934 0.0652,-0.99554 0,-1.40115 -0.41742,-2.13859 -0.41743,-0.774307 -1.22618,-0.774307 -2.24365,0 -5.5439,3.576597 z m 24.65403,16.07629 q -0.2348,3.09727 -0.40438,6.04705 l -0.28698,4.49842 q -1.2914,0.81118 -2.02189,1.03241 -0.71744,0.22124 -1.39575,0.22124 -1.10878,0 -1.96972,-0.55309 -0.86093,-0.5162 -1.43489,-1.91735 -0.57395,-1.43802 -0.78267,-3.28163 -0.20871,-1.84361 -0.20871,-3.90846 0,-0.36872 0.0131,-1.29053 0.0131,-0.95868 0.0913,-4.20343 l 0.28698,-12.75779 h -2.03493 q 0.0652,-2.54419 0.1174,-6.710746 l 0.0391,-3.429122 h 2.16538 q 0.0783,-1.696118 0.19567,-7.411321 l 2.2306,-1.290526 q 0.61309,-0.331845 2.60889,-1.696118 -0.0913,4.830259 -0.13044,10.397965 h 2.97413 q -0.10435,7.669428 -0.10435,10.139868 h -3.00023 l -0.15653,9.21806 q -0.0261,2.06484 -0.0261,2.6548 0,1.76986 0.13044,2.94978 0.14349,1.1799 0.48264,1.69612 0.35221,0.51621 0.76963,0.51621 0.31307,0 0.65222,-0.11062 0.33916,-0.14749 1.20009,-0.81119 z m 14.5837,-0.29498 q -0.16957,2.21234 -0.65222,10.69295 -1.51315,0.84806 -2.54367,1.10617 -1.03051,0.29498 -2.08711,0.29498 -1.55229,0 -2.85674,-0.62683 -1.30444,-0.58996 -2.25669,-2.13859 -0.9392,-1.54864 -1.57838,-3.83472 -0.63917,-2.32294 -0.97833,-5.49396 -0.32611,-3.17101 -0.32611,-6.52638 0,-4.71965 0.66527,-9.21807 0.66526,-4.535269 1.70882,-7.079457 1.0566,-2.544178 2.42627,-3.613481 1.36967,-1.069293 2.80456,-1.069293 1.48706,0 2.83064,0.995555 1.35663,0.958671 2.29583,3.392238 0.9392,2.433576 1.33054,5.493968 0.40437,3.06039 0.40437,6.60012 0,2.10172 -0.16957,4.68277 l -9.14417,0.0369 q -0.0131,0.58996 -0.0131,1.06929 0,3.98221 1.00442,5.86269 1.00443,1.88049 2.45236,1.88049 0.86094,0 1.95667,-0.55309 1.10878,-0.58995 2.72629,-1.95423 z m -8.02233,-11.94661 h 4.30466 q 0.0131,-0.62682 0.0131,-1.06929 0,-1.91735 -0.24784,-3.28162 -0.2348,-1.36428 -0.69136,-1.9911 -0.44351,-0.62683 -1.00442,-0.62683 -0.39133,0 -0.75658,0.36872 -0.36524,0.33185 -0.66526,1.03242 -0.28699,0.6637 -0.48265,1.54863 -0.19567,0.88494 -0.28698,1.733 -0.0913,0.81119 -0.18262,2.28607 z"
       id="text1"
       style="font-size:74.6667px;font-family:'Eras Bold ITC';-inkscape-font-specification:'Eras Bold ITC';white-space:pre;fill:#ffffff;stroke-width:0.601542"
       aria-label="AI-Gate" />
  </g>
</svg>
